<svg width="447" height="44" viewBox="0 0 447 44" fill="none" xmlns="http://www.w3.org/2000/svg">
<path d="M1.354 33H0.795V2.9H2.257L20.145 30.721V2.9H20.704V33H17.565L1.354 8.06V33ZM28.1333 22.508C28.1333 26.0627 28.7496 28.6713 29.9823 30.334C31.2436 31.9967 32.8919 32.828 34.9273 32.828C37.7939 32.828 40.3453 32.398 42.5813 31.538L42.7103 31.839C40.4169 32.7277 37.8226 33.172 34.9273 33.172C32.0606 33.172 29.7243 32.312 27.9183 30.592C26.1123 28.872 25.2093 26.2203 25.2093 22.637C25.2093 19.0537 26.1553 16.273 28.0473 14.295C29.9393 12.317 32.3473 11.328 35.2713 11.328C37.6219 11.328 39.5999 12.0303 41.2053 13.435C42.8106 14.8397 43.6133 16.918 43.6133 19.67C43.6133 19.8133 43.6133 19.9567 43.6133 20.1H28.2623C28.1763 20.874 28.1333 21.6767 28.1333 22.508ZM40.6893 19.756C40.6606 17.004 40.1303 14.9687 39.0983 13.65C38.0663 12.3313 36.7333 11.672 35.0993 11.672C33.4653 11.672 32.0033 12.3887 30.7133 13.822C29.4519 15.2553 28.6493 17.2333 28.3053 19.756H40.6893ZM75.8743 11.758L76.1323 11.5C76.247 11.5573 76.3903 11.7293 76.5623 12.016C76.763 12.3027 76.8777 12.5607 76.9063 12.79C76.9637 13.0193 76.9923 13.2343 76.9923 13.435C76.9923 14.209 76.8203 14.9973 76.4763 15.8L68.6503 33H68.2203L62.0283 16.359L54.4603 33H54.0303L46.0323 11.5H49.0423L55.6213 29.302L61.8133 15.843L60.2223 11.5H63.2323L69.8113 29.302L76.0463 15.8C76.3903 15.198 76.5623 14.4813 76.5623 13.65C76.5623 12.8187 76.333 12.188 75.8743 11.758ZM94.3586 3.33V2.9H102.013V3.33H99.9056V32.57H102.013V33H94.3586V32.57H96.3366V3.33H94.3586ZM123.301 33C122.126 33 121.223 32.742 120.592 32.226C119.99 31.71 119.675 31.194 119.646 30.678L119.603 29.947V16.445C119.603 14.1803 119.016 12.7327 117.84 12.102C117.238 11.8153 116.493 11.672 115.604 11.672C113.77 11.672 112.121 12.403 110.659 13.865C109.197 15.2983 108.466 16.5883 108.466 17.735V33H105.456V11.5H108.466V16.402C108.954 15.1693 109.857 14.0227 111.175 12.962C112.494 11.8727 113.942 11.328 115.518 11.328C117.095 11.328 118.371 11.4857 119.345 11.801C120.349 12.0877 121.08 12.5033 121.538 13.048C122.255 13.9367 122.613 15.0833 122.613 16.488V29.947C122.613 30.7783 122.771 31.4233 123.086 31.882C123.43 32.312 123.774 32.5413 124.118 32.57L124.591 32.656H125.924V33H123.301ZM151.518 33H147.949V3.33H140.51V2.9H159V3.33H151.518V33ZM179.24 33C178.065 33 177.162 32.742 176.531 32.226C175.929 31.71 175.614 31.194 175.585 30.678L175.542 29.947V16.445C175.542 14.1803 174.94 12.7327 173.736 12.102C173.163 11.8153 172.432 11.672 171.543 11.672C169.766 11.672 168.16 12.403 166.727 13.865C165.322 15.2983 164.62 16.5883 164.62 17.735V33H161.61V0.792999H164.62V16.402C165.079 15.1693 165.953 14.0227 167.243 12.962C168.533 11.8727 169.981 11.328 171.586 11.328C174.367 11.328 176.216 11.8153 177.133 12.79C178.079 13.736 178.552 14.9687 178.552 16.488V29.947C178.552 30.7783 178.71 31.4233 179.025 31.882C179.369 32.312 179.699 32.5413 180.014 32.57L180.53 32.656H181.863V33H179.24ZM187.158 22.508C187.158 26.0627 187.774 28.6713 189.007 30.334C190.268 31.9967 191.916 32.828 193.952 32.828C196.818 32.828 199.37 32.398 201.606 31.538L201.735 31.839C199.441 32.7277 196.847 33.172 193.952 33.172C191.085 33.172 188.749 32.312 186.943 30.592C185.137 28.872 184.234 26.2203 184.234 22.637C184.234 19.0537 185.18 16.273 187.072 14.295C188.964 12.317 191.372 11.328 194.296 11.328C196.646 11.328 198.624 12.0303 200.23 13.435C201.835 14.8397 202.638 16.918 202.638 19.67C202.638 19.8133 202.638 19.9567 202.638 20.1H187.287C187.201 20.874 187.158 21.6767 187.158 22.508ZM199.714 19.756C199.685 17.004 199.155 14.9687 198.123 13.65C197.091 12.3313 195.758 11.672 194.124 11.672C192.49 11.672 191.028 12.3887 189.738 13.822C188.476 15.2553 187.674 17.2333 187.33 19.756H199.714ZM219.831 3.244C223.157 3.01466 226.095 2.9 228.646 2.9C235.727 2.9 239.267 5.265 239.267 9.995C239.267 11.7723 238.751 13.306 237.719 14.596C236.687 15.8573 235.039 16.7173 232.774 17.176C234.953 17.434 236.673 18.0933 237.934 19.154C239.196 20.2147 239.826 22.0637 239.826 24.701C239.826 30.2337 236.286 33 229.205 33H219.831V3.244ZM223.4 32.57H229.205C231.757 32.57 233.563 31.9107 234.623 30.592C235.713 29.2447 236.257 27.195 236.257 24.443C236.257 21.691 235.713 19.8563 234.623 18.939C233.534 18.0217 231.914 17.5343 229.764 17.477H223.4V32.57ZM228.646 3.33C226.984 3.33 225.235 3.43033 223.4 3.631V17.047H229.764C233.806 16.875 235.827 14.553 235.827 10.081C235.827 7.90233 235.225 6.23967 234.021 5.093C232.817 3.91766 231.026 3.33 228.646 3.33ZM245.989 22.508C245.989 26.0627 246.605 28.6713 247.838 30.334C249.099 31.9967 250.747 32.828 252.783 32.828C255.649 32.828 258.201 32.398 260.437 31.538L260.566 31.839C258.272 32.7277 255.678 33.172 252.783 33.172C249.916 33.172 247.58 32.312 245.774 30.592C243.968 28.872 243.065 26.2203 243.065 22.637C243.065 19.0537 244.011 16.273 245.903 14.295C247.795 12.317 250.203 11.328 253.127 11.328C255.477 11.328 257.455 12.0303 259.061 13.435C260.666 14.8397 261.469 16.918 261.469 19.67C261.469 19.8133 261.469 19.9567 261.469 20.1H246.118C246.032 20.874 245.989 21.6767 245.989 22.508ZM258.545 19.756C258.516 17.004 257.986 14.9687 256.954 13.65C255.922 12.3313 254.589 11.672 252.955 11.672C251.321 11.672 249.859 12.3887 248.569 13.822C247.307 15.2553 246.505 17.2333 246.161 19.756H258.545ZM282.282 33C280.332 33 278.999 32.6273 278.283 31.882C277.623 31.2513 277.294 30.7067 277.294 30.248V29.345C275.889 31.8963 273.639 33.172 270.543 33.172C266.931 33.172 264.881 31.538 264.394 28.27C264.336 27.926 264.308 27.582 264.308 27.238C264.308 26.8653 264.365 26.464 264.48 26.034C264.594 25.604 264.924 25.131 265.469 24.615C266.558 23.583 268.952 22.9523 272.65 22.723C273.567 22.637 274.413 22.594 275.187 22.594C275.961 22.594 276.663 22.6227 277.294 22.68V15.542C277.236 15.5133 277.236 15.3843 277.294 15.155C277.351 14.897 277.294 14.5817 277.122 14.209C276.978 13.8077 276.778 13.4207 276.52 13.048C276.262 12.6753 275.803 12.36 275.144 12.102C274.484 11.8153 273.624 11.672 272.564 11.672C271.503 11.672 270.256 11.8727 268.823 12.274C267.418 12.6467 266.386 13.0193 265.727 13.392L265.555 13.091C268.106 11.9157 270.7 11.328 273.338 11.328C276.29 11.328 278.24 11.8583 279.186 12.919C279.931 13.7503 280.304 14.6247 280.304 15.542V29.947C280.304 30.7783 280.461 31.4233 280.777 31.882C281.121 32.312 281.465 32.5413 281.809 32.57L282.282 32.656H283.615V33H282.282ZM271.231 32.828C272.75 32.828 274.112 32.312 275.316 31.28C276.548 30.2193 277.208 29.2017 277.294 28.227V23.024C276.52 22.9667 275.731 22.938 274.929 22.938C274.155 22.938 273.381 22.981 272.607 23.067C270.428 23.325 269.009 23.8123 268.35 24.529C267.69 25.2457 267.361 26.2347 267.361 27.496C267.361 27.7253 267.375 27.9833 267.404 28.27C267.662 31.3087 268.937 32.828 271.231 32.828ZM289.831 28.055C289.831 30.3197 290.433 31.7673 291.637 32.398C292.21 32.6847 292.941 32.828 293.83 32.828C295.636 32.828 297.241 32.14 298.646 30.764C300.079 29.388 300.853 28.1123 300.968 26.937V11.5H303.978V29.947C303.978 30.7783 304.135 31.4233 304.451 31.882C304.795 32.312 305.139 32.5413 305.483 32.57L305.956 32.656H307.289V33H304.666C303.49 33 302.587 32.742 301.957 32.226C301.355 31.71 301.039 31.194 301.011 30.678L300.968 29.947V28.098C300.452 29.3307 299.534 30.4917 298.216 31.581C296.897 32.6417 295.449 33.172 293.873 33.172C292.325 33.172 291.049 33.0287 290.046 32.742C289.071 32.4267 288.369 31.9967 287.939 31.452C287.193 30.5633 286.821 29.4167 286.821 28.012V11.5H289.831V28.055ZM309.239 11.844V11.5H310.142V7.2H313.152V11.5H319.731V11.844H313.152V27.496C313.152 29.3593 313.353 30.7067 313.754 31.538C314.184 32.3693 315.059 32.785 316.377 32.785C317.725 32.785 319.086 32.5127 320.462 31.968L320.591 32.312C319.158 32.8567 317.51 33.129 315.646 33.129C313.812 33.129 312.436 32.7563 311.518 32.011C310.601 31.237 310.142 29.7177 310.142 27.453V11.844H309.239ZM328.265 40.697C327.348 42.7323 326.215 43.75 324.868 43.75C324.266 43.75 323.564 43.6497 322.761 43.449V43.105C323.42 43.277 324.008 43.363 324.524 43.363C325.986 43.363 327.104 42.4743 327.878 40.697L331.49 33H331.447L323.449 11.5H326.459L333.124 29.431L339.703 15.8C340.047 15.198 340.219 14.4813 340.219 13.65C340.219 12.8187 339.99 12.188 339.531 11.758L339.789 11.5C339.904 11.5573 340.047 11.7293 340.219 12.016C340.42 12.3027 340.534 12.5607 340.563 12.79C340.62 13.0193 340.649 13.2343 340.649 13.435C340.649 14.209 340.477 14.9973 340.133 15.8L331.877 33L328.265 40.697ZM373.895 4.706C371.286 3.70267 368.821 3.201 366.499 3.201C364.205 3.201 362.414 3.68833 361.124 4.663C359.834 5.63767 359.189 6.985 359.189 8.705C359.189 10.7977 360.278 12.4173 362.457 13.564C363.431 14.0513 364.492 14.51 365.639 14.94C366.814 15.3413 367.989 15.8 369.165 16.316C370.34 16.832 371.415 17.4197 372.39 18.079C373.364 18.7383 374.153 19.6557 374.755 20.831C375.357 21.9777 375.658 23.454 375.658 25.26C375.658 27.0373 375.156 28.5567 374.153 29.818C373.149 31.0793 371.931 31.9393 370.498 32.398C369.093 32.828 367.445 33.043 365.553 33.043C362.027 33.043 359.017 32.1687 356.523 30.42L356.738 30.076C357.684 30.8213 358.902 31.4377 360.393 31.925C361.912 32.3837 363.46 32.613 365.037 32.613C367.359 32.613 369.337 32.0827 370.971 31.022C372.633 29.9327 373.465 28.3417 373.465 26.249C373.465 23.9557 372.375 22.164 370.197 20.874C369.222 20.3007 368.147 19.7703 366.972 19.283C365.825 18.7957 364.664 18.294 363.489 17.778C362.313 17.2333 361.238 16.6313 360.264 15.972C358.085 14.5387 356.996 12.5033 356.996 9.866C356.996 7.77333 357.698 6.082 359.103 4.792C360.507 3.47333 362.614 2.814 365.424 2.814C368.262 2.814 371.143 3.30133 374.067 4.276L373.895 4.706ZM378.652 11.844V11.5H379.555V7.2H382.565V11.5H389.144V11.844H382.565V27.496C382.565 29.3593 382.766 30.7067 383.167 31.538C383.597 32.3693 384.472 32.785 385.79 32.785C387.138 32.785 388.499 32.5127 389.875 31.968L390.004 32.312C388.571 32.8567 386.923 33.129 385.059 33.129C383.225 33.129 381.849 32.7563 380.931 32.011C380.014 31.237 379.555 29.7177 379.555 27.453V11.844H378.652ZM401.278 33.172C398.268 33.172 395.817 32.312 393.925 30.592C392.033 28.872 391.087 26.2203 391.087 22.637C391.087 19.0537 392.062 16.273 394.011 14.295C395.989 12.317 398.483 11.328 401.493 11.328C404.532 11.328 406.997 12.188 408.889 13.908C410.781 15.628 411.727 18.2797 411.727 21.863C411.727 25.4463 410.738 28.227 408.76 30.205C406.811 32.183 404.317 33.172 401.278 33.172ZM401.579 11.672C399.401 11.672 397.595 12.6467 396.161 14.596C394.728 16.5167 394.011 19.2113 394.011 22.68C394.011 26.12 394.671 28.6713 395.989 30.334C397.308 31.9967 399.057 32.828 401.235 32.828C403.414 32.828 405.22 31.8677 406.653 29.947C408.087 27.9977 408.803 25.303 408.803 21.863C408.803 18.3943 408.144 15.8287 406.825 14.166C405.507 12.5033 403.758 11.672 401.579 11.672ZM422.522 13.349V12.446C421.232 12.962 420.057 14.0083 418.996 15.585C417.935 17.133 417.376 18.595 417.319 19.971V33H414.309V11.5H417.319V18.337C417.778 16.6743 418.652 15.112 419.942 13.65C421.232 12.1593 422.694 11.3853 424.328 11.328H424.5C425.073 11.328 425.546 11.5287 425.919 11.93C426.32 12.3027 426.521 12.7757 426.521 13.349C426.521 13.9223 426.32 14.3953 425.919 14.768C425.546 15.1407 425.073 15.327 424.5 15.327C423.927 15.327 423.454 15.1407 423.081 14.768C422.708 14.3953 422.522 13.9223 422.522 13.349ZM431.384 22.508C431.384 26.0627 432.001 28.6713 433.233 30.334C434.495 31.9967 436.143 32.828 438.178 32.828C441.045 32.828 443.596 32.398 445.832 31.538L445.961 31.839C443.668 32.7277 441.074 33.172 438.178 33.172C435.312 33.172 432.975 32.312 431.169 30.592C429.363 28.872 428.46 26.2203 428.46 22.637C428.46 19.0537 429.406 16.273 431.298 14.295C433.19 12.317 435.598 11.328 438.522 11.328C440.873 11.328 442.851 12.0303 444.456 13.435C446.062 14.8397 446.864 16.918 446.864 19.67C446.864 19.8133 446.864 19.9567 446.864 20.1H431.513C431.427 20.874 431.384 21.6767 431.384 22.508ZM443.94 19.756C443.912 17.004 443.381 14.9687 442.349 13.65C441.317 12.3313 439.984 11.672 438.35 11.672C436.716 11.672 435.254 12.3887 433.964 13.822C432.703 15.2553 431.9 17.2333 431.556 19.756H443.94Z" fill="black"/>
</svg>
